<svg width="1024" height="1024" viewBox="0 0 1024 1024" fill="none" xmlns="http://www.w3.org/2000/svg">
<g filter="url(#filter0_d_33_184)">
<path d="M525.942 504.472C525.678 504.472 525.424 504.367 525.237 504.18L512.415 491.414C512.159 491.159 512.06 490.785 512.158 490.436L543.257 379.296C543.311 379.104 543.421 378.932 543.574 378.802L750.578 203.645C750.999 203.288 751.629 203.34 751.986 203.76L886.57 362.094C886.972 362.567 886.851 363.288 886.316 363.604L647.575 504.333C647.421 504.424 647.246 504.472 647.067 504.472L525.942 504.472Z" fill="#C1523E"/>
<path d="M498.398 504.472C498.662 504.472 498.916 504.367 499.103 504.18L511.924 491.414C512.181 491.159 512.279 490.785 512.182 490.436L481.083 379.296C481.029 379.104 480.918 378.932 480.766 378.802L273.762 203.645C273.341 203.288 272.711 203.34 272.354 203.76L137.77 362.094C137.368 362.567 137.489 363.288 138.024 363.604L376.765 504.333C376.919 504.424 377.094 504.472 377.273 504.472L498.398 504.472Z" fill="#C1523E"/>
<path d="M471.429 512.17C471.781 512.065 472.162 512.162 472.422 512.422L511.608 551.608C511.852 551.852 511.953 552.204 511.875 552.54L495.393 623.759C495.357 623.918 495.282 624.065 495.176 624.188L289.333 862.457C288.79 863.086 287.761 862.816 287.596 862.001L262.262 736.586C262.189 736.225 261.923 735.934 261.571 735.827L146.057 700.909C145.243 700.663 145.088 699.578 145.8 699.114L399.879 533.55C399.959 533.498 400.047 533.457 400.139 533.43L471.429 512.17Z" fill="#C1523E"/>
<path d="M552.571 512.17C552.219 512.065 551.838 512.162 551.578 512.422L512.392 551.608C512.148 551.852 512.047 552.204 512.125 552.54L528.607 623.759C528.643 623.918 528.718 624.065 528.824 624.188L734.667 862.457C735.21 863.086 736.239 862.816 736.404 862.001L761.738 736.586C761.811 736.225 762.077 735.934 762.429 735.827L877.943 700.909C878.757 700.663 878.912 699.578 878.2 699.114L624.121 533.55C624.041 533.498 623.953 533.457 623.861 533.43L552.571 512.17Z" fill="#C1523E"/>
</g>
<defs>
<filter id="filter0_d_33_184" x="133.532" y="200.408" width="757.277" height="667.396" filterUnits="userSpaceOnUse" color-interpolation-filters="sRGB">
<feFlood flood-opacity="0" result="BackgroundImageFix"/>
<feColorMatrix in="SourceAlpha" type="matrix" values="0 0 0 0 0 0 0 0 0 0 0 0 0 0 0 0 0 0 127 0" result="hardAlpha"/>
<feOffset dy="1"/>
<feGaussianBlur stdDeviation="2"/>
<feComposite in2="hardAlpha" operator="out"/>
<feColorMatrix type="matrix" values="0 0 0 0 0 0 0 0 0 0 0 0 0 0 0 0 0 0 0.25 0"/>
<feBlend mode="normal" in2="BackgroundImageFix" result="effect1_dropShadow_33_184"/>
<feBlend mode="normal" in="SourceGraphic" in2="effect1_dropShadow_33_184" result="shape"/>
</filter>
</defs>
</svg>
